<mxfile host="app.diagrams.net" modified="2024-04-22T17:21:31.239Z" agent="Mozilla/5.0 (Windows NT 10.0; Win64; x64) AppleWebKit/537.36 (KHTML, like Gecko) Chrome/124.0.0.0 Safari/537.36 Edg/124.0.0.0" etag="Uhd9fJxTtB-9eoWkuU-e" version="24.2.7" type="device">
  <diagram name="Seite-1" id="6wSpcnWUghKB4rUfSbuZ">
    <mxGraphModel dx="1386" dy="785" grid="1" gridSize="10" guides="1" tooltips="1" connect="1" arrows="1" fold="1" page="1" pageScale="1" pageWidth="1169" pageHeight="1654" math="0" shadow="0">
      <root>
        <mxCell id="0" />
        <mxCell id="1" parent="0" />
        <mxCell id="sCv6F4jHhr01Q8Q7Me1H-1" value="«interface»&lt;br&gt;&lt;b&gt;ParticipantCollection&lt;/b&gt;" style="html=1;whiteSpace=wrap;" vertex="1" parent="1">
          <mxGeometry x="740" y="322" width="140" height="50" as="geometry" />
        </mxCell>
        <mxCell id="sCv6F4jHhr01Q8Q7Me1H-3" style="edgeStyle=orthogonalEdgeStyle;rounded=0;orthogonalLoop=1;jettySize=auto;html=1;endArrow=block;endFill=0;" edge="1" parent="1" source="sCv6F4jHhr01Q8Q7Me1H-2" target="sCv6F4jHhr01Q8Q7Me1H-1">
          <mxGeometry relative="1" as="geometry" />
        </mxCell>
        <mxCell id="sCv6F4jHhr01Q8Q7Me1H-2" value="«interface»&lt;br&gt;&lt;b&gt;ParticipantList&lt;/b&gt;" style="html=1;whiteSpace=wrap;" vertex="1" parent="1">
          <mxGeometry x="470" y="322" width="110" height="50" as="geometry" />
        </mxCell>
        <mxCell id="sCv6F4jHhr01Q8Q7Me1H-4" value="Group" style="swimlane;fontStyle=1;align=center;verticalAlign=top;childLayout=stackLayout;horizontal=1;startSize=26;horizontalStack=0;resizeParent=1;resizeParentMax=0;resizeLast=0;collapsible=1;marginBottom=0;whiteSpace=wrap;html=1;" vertex="1" parent="1">
          <mxGeometry x="840" y="462" width="160" height="86" as="geometry" />
        </mxCell>
        <mxCell id="sCv6F4jHhr01Q8Q7Me1H-5" value="+ field: type" style="text;strokeColor=none;fillColor=none;align=left;verticalAlign=top;spacingLeft=4;spacingRight=4;overflow=hidden;rotatable=0;points=[[0,0.5],[1,0.5]];portConstraint=eastwest;whiteSpace=wrap;html=1;" vertex="1" parent="sCv6F4jHhr01Q8Q7Me1H-4">
          <mxGeometry y="26" width="160" height="26" as="geometry" />
        </mxCell>
        <mxCell id="sCv6F4jHhr01Q8Q7Me1H-6" value="" style="line;strokeWidth=1;fillColor=none;align=left;verticalAlign=middle;spacingTop=-1;spacingLeft=3;spacingRight=3;rotatable=0;labelPosition=right;points=[];portConstraint=eastwest;strokeColor=inherit;" vertex="1" parent="sCv6F4jHhr01Q8Q7Me1H-4">
          <mxGeometry y="52" width="160" height="8" as="geometry" />
        </mxCell>
        <mxCell id="sCv6F4jHhr01Q8Q7Me1H-7" value="+ method(type): type" style="text;strokeColor=none;fillColor=none;align=left;verticalAlign=top;spacingLeft=4;spacingRight=4;overflow=hidden;rotatable=0;points=[[0,0.5],[1,0.5]];portConstraint=eastwest;whiteSpace=wrap;html=1;" vertex="1" parent="sCv6F4jHhr01Q8Q7Me1H-4">
          <mxGeometry y="60" width="160" height="26" as="geometry" />
        </mxCell>
        <mxCell id="sCv6F4jHhr01Q8Q7Me1H-56" style="edgeStyle=orthogonalEdgeStyle;rounded=0;orthogonalLoop=1;jettySize=auto;html=1;entryX=-0.011;entryY=0.357;entryDx=0;entryDy=0;entryPerimeter=0;endArrow=open;endFill=0;" edge="1" parent="1" source="sCv6F4jHhr01Q8Q7Me1H-38" target="sCv6F4jHhr01Q8Q7Me1H-46">
          <mxGeometry relative="1" as="geometry">
            <mxPoint x="780" y="753" as="targetPoint" />
            <Array as="points">
              <mxPoint x="435" y="712" />
            </Array>
          </mxGeometry>
        </mxCell>
        <mxCell id="sCv6F4jHhr01Q8Q7Me1H-8" value="Pair" style="swimlane;fontStyle=1;align=center;verticalAlign=top;childLayout=stackLayout;horizontal=1;startSize=26;horizontalStack=0;resizeParent=1;resizeParentMax=0;resizeLast=0;collapsible=1;marginBottom=0;whiteSpace=wrap;html=1;" vertex="1" parent="1">
          <mxGeometry x="640" y="462" width="160" height="86" as="geometry" />
        </mxCell>
        <mxCell id="sCv6F4jHhr01Q8Q7Me1H-9" value="+ field: type" style="text;strokeColor=none;fillColor=none;align=left;verticalAlign=top;spacingLeft=4;spacingRight=4;overflow=hidden;rotatable=0;points=[[0,0.5],[1,0.5]];portConstraint=eastwest;whiteSpace=wrap;html=1;" vertex="1" parent="sCv6F4jHhr01Q8Q7Me1H-8">
          <mxGeometry y="26" width="160" height="26" as="geometry" />
        </mxCell>
        <mxCell id="sCv6F4jHhr01Q8Q7Me1H-10" value="" style="line;strokeWidth=1;fillColor=none;align=left;verticalAlign=middle;spacingTop=-1;spacingLeft=3;spacingRight=3;rotatable=0;labelPosition=right;points=[];portConstraint=eastwest;strokeColor=inherit;" vertex="1" parent="sCv6F4jHhr01Q8Q7Me1H-8">
          <mxGeometry y="52" width="160" height="8" as="geometry" />
        </mxCell>
        <mxCell id="sCv6F4jHhr01Q8Q7Me1H-11" value="+ method(type): type" style="text;strokeColor=none;fillColor=none;align=left;verticalAlign=top;spacingLeft=4;spacingRight=4;overflow=hidden;rotatable=0;points=[[0,0.5],[1,0.5]];portConstraint=eastwest;whiteSpace=wrap;html=1;" vertex="1" parent="sCv6F4jHhr01Q8Q7Me1H-8">
          <mxGeometry y="60" width="160" height="26" as="geometry" />
        </mxCell>
        <mxCell id="sCv6F4jHhr01Q8Q7Me1H-12" style="edgeStyle=orthogonalEdgeStyle;rounded=0;orthogonalLoop=1;jettySize=auto;html=1;entryX=0.443;entryY=1.06;entryDx=0;entryDy=0;entryPerimeter=0;dashed=1;endArrow=block;endFill=0;" edge="1" parent="1" source="sCv6F4jHhr01Q8Q7Me1H-8" target="sCv6F4jHhr01Q8Q7Me1H-1">
          <mxGeometry relative="1" as="geometry" />
        </mxCell>
        <mxCell id="sCv6F4jHhr01Q8Q7Me1H-13" style="edgeStyle=orthogonalEdgeStyle;rounded=0;orthogonalLoop=1;jettySize=auto;html=1;entryX=0.443;entryY=1.06;entryDx=0;entryDy=0;entryPerimeter=0;dashed=1;endArrow=block;endFill=0;" edge="1" parent="1" source="sCv6F4jHhr01Q8Q7Me1H-4" target="sCv6F4jHhr01Q8Q7Me1H-1">
          <mxGeometry relative="1" as="geometry" />
        </mxCell>
        <mxCell id="sCv6F4jHhr01Q8Q7Me1H-23" style="edgeStyle=orthogonalEdgeStyle;rounded=0;orthogonalLoop=1;jettySize=auto;html=1;entryX=0.5;entryY=0;entryDx=0;entryDy=0;dashed=1;endArrow=block;endFill=0;" edge="1" parent="1" source="sCv6F4jHhr01Q8Q7Me1H-14" target="sCv6F4jHhr01Q8Q7Me1H-2">
          <mxGeometry relative="1" as="geometry" />
        </mxCell>
        <mxCell id="sCv6F4jHhr01Q8Q7Me1H-62" style="edgeStyle=orthogonalEdgeStyle;rounded=0;orthogonalLoop=1;jettySize=auto;html=1;entryX=0;entryY=0.5;entryDx=0;entryDy=0;" edge="1" parent="1" source="sCv6F4jHhr01Q8Q7Me1H-14" target="sCv6F4jHhr01Q8Q7Me1H-24">
          <mxGeometry relative="1" as="geometry">
            <Array as="points">
              <mxPoint x="660" y="92" />
              <mxPoint x="90" y="92" />
              <mxPoint x="90" y="552" />
            </Array>
          </mxGeometry>
        </mxCell>
        <mxCell id="sCv6F4jHhr01Q8Q7Me1H-14" value="GroupList" style="swimlane;fontStyle=1;align=center;verticalAlign=top;childLayout=stackLayout;horizontal=1;startSize=26;horizontalStack=0;resizeParent=1;resizeParentMax=0;resizeLast=0;collapsible=1;marginBottom=0;whiteSpace=wrap;html=1;" vertex="1" parent="1">
          <mxGeometry x="580" y="122" width="160" height="86" as="geometry" />
        </mxCell>
        <mxCell id="sCv6F4jHhr01Q8Q7Me1H-15" value="+ field: type" style="text;strokeColor=none;fillColor=none;align=left;verticalAlign=top;spacingLeft=4;spacingRight=4;overflow=hidden;rotatable=0;points=[[0,0.5],[1,0.5]];portConstraint=eastwest;whiteSpace=wrap;html=1;" vertex="1" parent="sCv6F4jHhr01Q8Q7Me1H-14">
          <mxGeometry y="26" width="160" height="26" as="geometry" />
        </mxCell>
        <mxCell id="sCv6F4jHhr01Q8Q7Me1H-16" value="" style="line;strokeWidth=1;fillColor=none;align=left;verticalAlign=middle;spacingTop=-1;spacingLeft=3;spacingRight=3;rotatable=0;labelPosition=right;points=[];portConstraint=eastwest;strokeColor=inherit;" vertex="1" parent="sCv6F4jHhr01Q8Q7Me1H-14">
          <mxGeometry y="52" width="160" height="8" as="geometry" />
        </mxCell>
        <mxCell id="sCv6F4jHhr01Q8Q7Me1H-17" value="+ method(type): type" style="text;strokeColor=none;fillColor=none;align=left;verticalAlign=top;spacingLeft=4;spacingRight=4;overflow=hidden;rotatable=0;points=[[0,0.5],[1,0.5]];portConstraint=eastwest;whiteSpace=wrap;html=1;" vertex="1" parent="sCv6F4jHhr01Q8Q7Me1H-14">
          <mxGeometry y="60" width="160" height="26" as="geometry" />
        </mxCell>
        <mxCell id="sCv6F4jHhr01Q8Q7Me1H-22" style="edgeStyle=orthogonalEdgeStyle;rounded=0;orthogonalLoop=1;jettySize=auto;html=1;entryX=0.5;entryY=0;entryDx=0;entryDy=0;dashed=1;endArrow=block;endFill=0;" edge="1" parent="1" source="sCv6F4jHhr01Q8Q7Me1H-18" target="sCv6F4jHhr01Q8Q7Me1H-2">
          <mxGeometry relative="1" as="geometry" />
        </mxCell>
        <mxCell id="sCv6F4jHhr01Q8Q7Me1H-18" value="PairList" style="swimlane;fontStyle=1;align=center;verticalAlign=top;childLayout=stackLayout;horizontal=1;startSize=26;horizontalStack=0;resizeParent=1;resizeParentMax=0;resizeLast=0;collapsible=1;marginBottom=0;whiteSpace=wrap;html=1;" vertex="1" parent="1">
          <mxGeometry x="320" y="122" width="160" height="86" as="geometry" />
        </mxCell>
        <mxCell id="sCv6F4jHhr01Q8Q7Me1H-19" value="+ field: type" style="text;strokeColor=none;fillColor=none;align=left;verticalAlign=top;spacingLeft=4;spacingRight=4;overflow=hidden;rotatable=0;points=[[0,0.5],[1,0.5]];portConstraint=eastwest;whiteSpace=wrap;html=1;" vertex="1" parent="sCv6F4jHhr01Q8Q7Me1H-18">
          <mxGeometry y="26" width="160" height="26" as="geometry" />
        </mxCell>
        <mxCell id="sCv6F4jHhr01Q8Q7Me1H-20" value="" style="line;strokeWidth=1;fillColor=none;align=left;verticalAlign=middle;spacingTop=-1;spacingLeft=3;spacingRight=3;rotatable=0;labelPosition=right;points=[];portConstraint=eastwest;strokeColor=inherit;" vertex="1" parent="sCv6F4jHhr01Q8Q7Me1H-18">
          <mxGeometry y="52" width="160" height="8" as="geometry" />
        </mxCell>
        <mxCell id="sCv6F4jHhr01Q8Q7Me1H-21" value="+ method(type): type" style="text;strokeColor=none;fillColor=none;align=left;verticalAlign=top;spacingLeft=4;spacingRight=4;overflow=hidden;rotatable=0;points=[[0,0.5],[1,0.5]];portConstraint=eastwest;whiteSpace=wrap;html=1;" vertex="1" parent="sCv6F4jHhr01Q8Q7Me1H-18">
          <mxGeometry y="60" width="160" height="26" as="geometry" />
        </mxCell>
        <mxCell id="sCv6F4jHhr01Q8Q7Me1H-59" style="edgeStyle=orthogonalEdgeStyle;rounded=0;orthogonalLoop=1;jettySize=auto;html=1;entryX=0;entryY=0.5;entryDx=0;entryDy=0;endArrow=none;endFill=0;startArrow=open;startFill=0;" edge="1" parent="1" source="sCv6F4jHhr01Q8Q7Me1H-24" target="sCv6F4jHhr01Q8Q7Me1H-19">
          <mxGeometry relative="1" as="geometry" />
        </mxCell>
        <mxCell id="sCv6F4jHhr01Q8Q7Me1H-24" value="&lt;p style=&quot;margin:0px;margin-top:4px;text-align:center;&quot;&gt;&lt;i&gt;&amp;lt;&amp;lt;abstract&amp;gt;&amp;gt;&lt;/i&gt;&lt;br&gt;&lt;b&gt;IdentNumbers&lt;/b&gt;&lt;/p&gt;&lt;hr size=&quot;1&quot; style=&quot;border-style:solid;&quot;&gt;&lt;p style=&quot;margin:0px;margin-left:4px;&quot;&gt;+ field1: Type&lt;br&gt;+ field2: Type&lt;/p&gt;&lt;hr size=&quot;1&quot; style=&quot;border-style:solid;&quot;&gt;&lt;p style=&quot;margin:0px;margin-left:4px;&quot;&gt;+ method1(Type): Type&lt;br&gt;+ method2(Type, Type): Type&lt;/p&gt;" style="verticalAlign=top;align=left;overflow=fill;html=1;whiteSpace=wrap;" vertex="1" parent="1">
          <mxGeometry x="110" y="482" width="190" height="140" as="geometry" />
        </mxCell>
        <mxCell id="sCv6F4jHhr01Q8Q7Me1H-34" style="edgeStyle=orthogonalEdgeStyle;rounded=0;orthogonalLoop=1;jettySize=auto;html=1;entryX=0.5;entryY=1;entryDx=0;entryDy=0;endArrow=block;endFill=0;" edge="1" parent="1" source="sCv6F4jHhr01Q8Q7Me1H-25" target="sCv6F4jHhr01Q8Q7Me1H-24">
          <mxGeometry relative="1" as="geometry" />
        </mxCell>
        <mxCell id="sCv6F4jHhr01Q8Q7Me1H-25" value="GroupIdentNumbers" style="swimlane;fontStyle=1;align=center;verticalAlign=top;childLayout=stackLayout;horizontal=1;startSize=26;horizontalStack=0;resizeParent=1;resizeParentMax=0;resizeLast=0;collapsible=1;marginBottom=0;whiteSpace=wrap;html=1;" vertex="1" parent="1">
          <mxGeometry x="240" y="732" width="160" height="86" as="geometry" />
        </mxCell>
        <mxCell id="sCv6F4jHhr01Q8Q7Me1H-26" value="+ field: type" style="text;strokeColor=none;fillColor=none;align=left;verticalAlign=top;spacingLeft=4;spacingRight=4;overflow=hidden;rotatable=0;points=[[0,0.5],[1,0.5]];portConstraint=eastwest;whiteSpace=wrap;html=1;" vertex="1" parent="sCv6F4jHhr01Q8Q7Me1H-25">
          <mxGeometry y="26" width="160" height="26" as="geometry" />
        </mxCell>
        <mxCell id="sCv6F4jHhr01Q8Q7Me1H-27" value="" style="line;strokeWidth=1;fillColor=none;align=left;verticalAlign=middle;spacingTop=-1;spacingLeft=3;spacingRight=3;rotatable=0;labelPosition=right;points=[];portConstraint=eastwest;strokeColor=inherit;" vertex="1" parent="sCv6F4jHhr01Q8Q7Me1H-25">
          <mxGeometry y="52" width="160" height="8" as="geometry" />
        </mxCell>
        <mxCell id="sCv6F4jHhr01Q8Q7Me1H-28" value="+ method(type): type" style="text;strokeColor=none;fillColor=none;align=left;verticalAlign=top;spacingLeft=4;spacingRight=4;overflow=hidden;rotatable=0;points=[[0,0.5],[1,0.5]];portConstraint=eastwest;whiteSpace=wrap;html=1;" vertex="1" parent="sCv6F4jHhr01Q8Q7Me1H-25">
          <mxGeometry y="60" width="160" height="26" as="geometry" />
        </mxCell>
        <mxCell id="sCv6F4jHhr01Q8Q7Me1H-33" style="edgeStyle=orthogonalEdgeStyle;rounded=0;orthogonalLoop=1;jettySize=auto;html=1;entryX=0.5;entryY=1;entryDx=0;entryDy=0;endArrow=block;endFill=0;" edge="1" parent="1" source="sCv6F4jHhr01Q8Q7Me1H-29" target="sCv6F4jHhr01Q8Q7Me1H-24">
          <mxGeometry relative="1" as="geometry" />
        </mxCell>
        <mxCell id="sCv6F4jHhr01Q8Q7Me1H-29" value="PairIdentNumbers" style="swimlane;fontStyle=1;align=center;verticalAlign=top;childLayout=stackLayout;horizontal=1;startSize=26;horizontalStack=0;resizeParent=1;resizeParentMax=0;resizeLast=0;collapsible=1;marginBottom=0;whiteSpace=wrap;html=1;" vertex="1" parent="1">
          <mxGeometry x="10" y="732" width="160" height="86" as="geometry" />
        </mxCell>
        <mxCell id="sCv6F4jHhr01Q8Q7Me1H-30" value="+ field: type" style="text;strokeColor=none;fillColor=none;align=left;verticalAlign=top;spacingLeft=4;spacingRight=4;overflow=hidden;rotatable=0;points=[[0,0.5],[1,0.5]];portConstraint=eastwest;whiteSpace=wrap;html=1;" vertex="1" parent="sCv6F4jHhr01Q8Q7Me1H-29">
          <mxGeometry y="26" width="160" height="26" as="geometry" />
        </mxCell>
        <mxCell id="sCv6F4jHhr01Q8Q7Me1H-31" value="" style="line;strokeWidth=1;fillColor=none;align=left;verticalAlign=middle;spacingTop=-1;spacingLeft=3;spacingRight=3;rotatable=0;labelPosition=right;points=[];portConstraint=eastwest;strokeColor=inherit;" vertex="1" parent="sCv6F4jHhr01Q8Q7Me1H-29">
          <mxGeometry y="52" width="160" height="8" as="geometry" />
        </mxCell>
        <mxCell id="sCv6F4jHhr01Q8Q7Me1H-32" value="+ method(type): type" style="text;strokeColor=none;fillColor=none;align=left;verticalAlign=top;spacingLeft=4;spacingRight=4;overflow=hidden;rotatable=0;points=[[0,0.5],[1,0.5]];portConstraint=eastwest;whiteSpace=wrap;html=1;" vertex="1" parent="sCv6F4jHhr01Q8Q7Me1H-29">
          <mxGeometry y="60" width="160" height="26" as="geometry" />
        </mxCell>
        <mxCell id="sCv6F4jHhr01Q8Q7Me1H-37" value="&lt;p style=&quot;margin:0px;margin-top:4px;text-align:center;&quot;&gt;&lt;i&gt;&amp;lt;&amp;lt;enumeration&amp;gt;&amp;gt;&lt;/i&gt;&lt;br&gt;&lt;b&gt;Course&lt;/b&gt;&lt;/p&gt;&lt;hr size=&quot;1&quot; style=&quot;border-style:solid;&quot;&gt;&lt;p style=&quot;margin:0px;margin-left:4px;&quot;&gt;STARTER&lt;/p&gt;&lt;p style=&quot;margin:0px;margin-left:4px;&quot;&gt;MAIN&lt;/p&gt;&lt;p style=&quot;margin:0px;margin-left:4px;&quot;&gt;DESSERT&lt;/p&gt;&lt;p style=&quot;margin:0px;margin-left:4px;&quot;&gt;&lt;br&gt;&lt;/p&gt;" style="verticalAlign=top;align=left;overflow=fill;html=1;whiteSpace=wrap;" vertex="1" parent="1">
          <mxGeometry x="860" y="108" width="190" height="100" as="geometry" />
        </mxCell>
        <mxCell id="sCv6F4jHhr01Q8Q7Me1H-47" style="edgeStyle=orthogonalEdgeStyle;rounded=0;orthogonalLoop=1;jettySize=auto;html=1;entryX=0;entryY=0.5;entryDx=0;entryDy=0;verticalAlign=bottom;endArrow=open;endFill=0;horizontal=1;shadow=0;flowAnimation=0;strokeColor=default;" edge="1" parent="1" source="sCv6F4jHhr01Q8Q7Me1H-38" target="sCv6F4jHhr01Q8Q7Me1H-9">
          <mxGeometry relative="1" as="geometry" />
        </mxCell>
        <mxCell id="sCv6F4jHhr01Q8Q7Me1H-38" value="Participant" style="swimlane;fontStyle=1;align=center;verticalAlign=top;childLayout=stackLayout;horizontal=1;startSize=26;horizontalStack=0;resizeParent=1;resizeParentMax=0;resizeLast=0;collapsible=1;marginBottom=0;whiteSpace=wrap;html=1;" vertex="1" parent="1">
          <mxGeometry x="370" y="412" width="160" height="86" as="geometry" />
        </mxCell>
        <mxCell id="sCv6F4jHhr01Q8Q7Me1H-39" value="+ field: type" style="text;strokeColor=none;fillColor=none;align=left;verticalAlign=top;spacingLeft=4;spacingRight=4;overflow=hidden;rotatable=0;points=[[0,0.5],[1,0.5]];portConstraint=eastwest;whiteSpace=wrap;html=1;" vertex="1" parent="sCv6F4jHhr01Q8Q7Me1H-38">
          <mxGeometry y="26" width="160" height="26" as="geometry" />
        </mxCell>
        <mxCell id="sCv6F4jHhr01Q8Q7Me1H-40" value="" style="line;strokeWidth=1;fillColor=none;align=left;verticalAlign=middle;spacingTop=-1;spacingLeft=3;spacingRight=3;rotatable=0;labelPosition=right;points=[];portConstraint=eastwest;strokeColor=inherit;" vertex="1" parent="sCv6F4jHhr01Q8Q7Me1H-38">
          <mxGeometry y="52" width="160" height="8" as="geometry" />
        </mxCell>
        <mxCell id="sCv6F4jHhr01Q8Q7Me1H-41" value="+ method(type): type" style="text;strokeColor=none;fillColor=none;align=left;verticalAlign=top;spacingLeft=4;spacingRight=4;overflow=hidden;rotatable=0;points=[[0,0.5],[1,0.5]];portConstraint=eastwest;whiteSpace=wrap;html=1;" vertex="1" parent="sCv6F4jHhr01Q8Q7Me1H-38">
          <mxGeometry y="60" width="160" height="26" as="geometry" />
        </mxCell>
        <mxCell id="sCv6F4jHhr01Q8Q7Me1H-46" value="&lt;p style=&quot;margin:0px;margin-top:4px;text-align:center;&quot;&gt;&lt;i&gt;&amp;lt;&amp;lt;record&amp;gt;&amp;gt;&lt;/i&gt;&lt;br&gt;&lt;b&gt;Kitchen&lt;/b&gt;&lt;/p&gt;&lt;hr size=&quot;1&quot; style=&quot;border-style:solid;&quot;&gt;&lt;p style=&quot;margin:0px;margin-left:4px;&quot;&gt;+ longitude: double {readOnly}&lt;/p&gt;&lt;p style=&quot;margin:0px;margin-left:4px;&quot;&gt;+ latitude: double {readOnly}&lt;/p&gt;&lt;hr size=&quot;1&quot; style=&quot;border-style:solid;&quot;&gt;&lt;p style=&quot;margin:0px;margin-left:4px;&quot;&gt;+ method1(Type): Type&lt;br&gt;+ method2(Type, Type): Type&lt;/p&gt;" style="verticalAlign=top;align=left;overflow=fill;html=1;whiteSpace=wrap;" vertex="1" parent="1">
          <mxGeometry x="810" y="662" width="190" height="140" as="geometry" />
        </mxCell>
        <mxCell id="sCv6F4jHhr01Q8Q7Me1H-48" style="edgeStyle=orthogonalEdgeStyle;rounded=0;orthogonalLoop=1;jettySize=auto;html=1;entryX=0.506;entryY=0.962;entryDx=0;entryDy=0;entryPerimeter=0;" edge="1" parent="1" source="sCv6F4jHhr01Q8Q7Me1H-8" target="sCv6F4jHhr01Q8Q7Me1H-7">
          <mxGeometry relative="1" as="geometry" />
        </mxCell>
        <mxCell id="sCv6F4jHhr01Q8Q7Me1H-50" value="is in" style="text;html=1;align=center;verticalAlign=middle;resizable=0;points=[];autosize=1;strokeColor=none;fillColor=none;" vertex="1" parent="1">
          <mxGeometry x="545" y="432" width="40" height="30" as="geometry" />
        </mxCell>
        <mxCell id="sCv6F4jHhr01Q8Q7Me1H-52" value="2" style="text;html=1;align=center;verticalAlign=middle;resizable=0;points=[];autosize=1;strokeColor=none;fillColor=none;" vertex="1" parent="1">
          <mxGeometry x="520" y="432" width="30" height="30" as="geometry" />
        </mxCell>
        <mxCell id="sCv6F4jHhr01Q8Q7Me1H-53" value="1" style="text;html=1;align=center;verticalAlign=middle;resizable=0;points=[];autosize=1;strokeColor=none;fillColor=none;spacingBottom=0;" vertex="1" parent="1">
          <mxGeometry x="614" y="476" width="30" height="30" as="geometry" />
        </mxCell>
        <mxCell id="sCv6F4jHhr01Q8Q7Me1H-54" value="3" style="text;html=1;align=center;verticalAlign=middle;resizable=0;points=[];autosize=1;strokeColor=none;fillColor=none;" vertex="1" parent="1">
          <mxGeometry x="795" y="482" width="30" height="30" as="geometry" />
        </mxCell>
        <mxCell id="sCv6F4jHhr01Q8Q7Me1H-55" value="is in" style="text;html=1;align=center;verticalAlign=middle;resizable=0;points=[];autosize=1;strokeColor=none;fillColor=none;" vertex="1" parent="1">
          <mxGeometry x="855" y="562" width="40" height="30" as="geometry" />
        </mxCell>
        <mxCell id="sCv6F4jHhr01Q8Q7Me1H-57" value="has" style="text;html=1;align=center;verticalAlign=middle;resizable=0;points=[];autosize=1;strokeColor=none;fillColor=none;" vertex="1" parent="1">
          <mxGeometry x="430" y="572" width="40" height="30" as="geometry" />
        </mxCell>
        <mxCell id="sCv6F4jHhr01Q8Q7Me1H-58" value="0...1" style="text;html=1;align=center;verticalAlign=middle;resizable=0;points=[];autosize=1;strokeColor=none;fillColor=none;" vertex="1" parent="1">
          <mxGeometry x="760" y="684" width="50" height="30" as="geometry" />
        </mxCell>
        <mxCell id="sCv6F4jHhr01Q8Q7Me1H-60" value="has" style="text;html=1;align=center;verticalAlign=middle;resizable=0;points=[];autosize=1;strokeColor=none;fillColor=none;" vertex="1" parent="1">
          <mxGeometry x="220" y="132" width="40" height="30" as="geometry" />
        </mxCell>
        <mxCell id="sCv6F4jHhr01Q8Q7Me1H-61" value="1" style="text;html=1;align=center;verticalAlign=middle;resizable=0;points=[];autosize=1;strokeColor=none;fillColor=none;" vertex="1" parent="1">
          <mxGeometry x="205" y="446" width="30" height="30" as="geometry" />
        </mxCell>
        <mxCell id="sCv6F4jHhr01Q8Q7Me1H-63" value="has" style="text;html=1;align=center;verticalAlign=middle;resizable=0;points=[];autosize=1;strokeColor=none;fillColor=none;" vertex="1" parent="1">
          <mxGeometry x="520" y="60" width="40" height="30" as="geometry" />
        </mxCell>
        <mxCell id="sCv6F4jHhr01Q8Q7Me1H-64" value="1" style="text;html=1;align=center;verticalAlign=middle;resizable=0;points=[];autosize=1;strokeColor=none;fillColor=none;" vertex="1" parent="1">
          <mxGeometry x="75" y="548" width="30" height="30" as="geometry" />
        </mxCell>
      </root>
    </mxGraphModel>
  </diagram>
</mxfile>
